<svg width="33" height="32" viewBox="0 0 33 32" fill="none" xmlns="http://www.w3.org/2000/svg">
<g id="cancel">
<mask id="mask0_663_116" style="mask-type:alpha" maskUnits="userSpaceOnUse" x="0" y="0" width="33" height="32">
<rect id="Bounding box" x="0.886719" width="32" height="32" fill="#D9D9D9"/>
</mask>
<g mask="url(#mask0_663_116)">
<path id="cancel_2" d="M12.0867 21.7437L16.8867 16.9437L21.6867 21.7437L22.6304 20.8L17.8304 16L22.6304 11.2L21.6867 10.2563L16.8867 15.0563L12.0867 10.2563L11.1431 11.2L15.9431 16L11.1431 20.8L12.0867 21.7437ZM16.8911 28C15.2317 28 13.6716 27.6851 12.2107 27.0553C10.7501 26.4256 9.47939 25.5709 8.39872 24.4913C7.31805 23.4118 6.46261 22.1422 5.83239 20.6827C5.20194 19.2233 4.88672 17.6639 4.88672 16.0043C4.88672 14.345 5.20161 12.7849 5.83139 11.324C6.46116 9.86333 7.31583 8.59267 8.39539 7.512C9.47494 6.43133 10.7445 5.57589 12.2041 4.94567C13.6634 4.31522 15.2228 4 16.8824 4C18.5417 4 20.1018 4.31489 21.5627 4.94467C23.0234 5.57445 24.2941 6.42911 25.3747 7.50867C26.4554 8.58822 27.3108 9.85778 27.9411 11.3173C28.5715 12.7767 28.8867 14.3361 28.8867 15.9957C28.8867 17.655 28.5718 19.2151 27.9421 20.676C27.3123 22.1367 26.4576 23.4073 25.3781 24.488C24.2985 25.5687 23.0289 26.4241 21.5694 27.0543C20.1101 27.6848 18.5506 28 16.8911 28ZM16.8867 26.6667C19.8645 26.6667 22.3867 25.6333 24.4534 23.5667C26.5201 21.5 27.5534 18.9778 27.5534 16C27.5534 13.0222 26.5201 10.5 24.4534 8.43333C22.3867 6.36667 19.8645 5.33333 16.8867 5.33333C13.9089 5.33333 11.3867 6.36667 9.32005 8.43333C7.25339 10.5 6.22005 13.0222 6.22005 16C6.22005 18.9778 7.25339 21.5 9.32005 23.5667C11.3867 25.6333 13.9089 26.6667 16.8867 26.6667Z" fill="white"/>
</g>
</g>
</svg>
