<svg width="32" height="32" viewBox="0 0 32 32" fill="none" xmlns="http://www.w3.org/2000/svg">
<g id="delete_forever">
<mask id="mask0_663_127" style="mask-type:alpha" maskUnits="userSpaceOnUse" x="0" y="0" width="32" height="32">
<rect id="Bounding box" width="32" height="32" fill="#D9D9D9"/>
</mask>
<g mask="url(#mask0_663_127)">
<path id="delete_forever_2" d="M12.5337 21.077L16.0003 17.6103L19.467 21.077L20.4107 20.1333L16.944 16.6667L20.4107 13.2L19.467 12.2563L16.0003 15.723L12.5337 12.2563L11.59 13.2L15.0567 16.6667L11.59 20.1333L12.5337 21.077ZM10.1543 26.6667C9.54055 26.6667 9.0281 26.4611 8.61699 26.05C8.20588 25.6389 8.00033 25.1264 8.00033 24.5127V7.99999H6.66699V6.66666H12.0003V5.64099H20.0003V6.66666H25.3337V7.99999H24.0003V24.5127C24.0003 25.1264 23.7948 25.6389 23.3837 26.05C22.9725 26.4611 22.4601 26.6667 21.8463 26.6667H10.1543ZM22.667 7.99999H9.33366V24.5127C9.33366 24.718 9.4191 24.9061 9.58999 25.077C9.76088 25.2479 9.94899 25.3333 10.1543 25.3333H21.8463C22.0517 25.3333 22.2398 25.2479 22.4107 25.077C22.5815 24.9061 22.667 24.718 22.667 24.5127V7.99999Z" fill="white"/>
</g>
</g>
</svg>
