<svg width="32" height="32" viewBox="0 0 32 32" fill="none" xmlns="http://www.w3.org/2000/svg">
<mask id="mask0_663_379" style="mask-type:alpha" maskUnits="userSpaceOnUse" x="0" y="0" width="32" height="32">
<rect width="32" height="32" fill="#D9D9D9"/>
</mask>
<g mask="url(#mask0_663_379)">
<path d="M15.9998 24.718C15.6332 24.718 15.3193 24.5874 15.0582 24.3263C14.7971 24.0652 14.6665 23.7513 14.6665 23.3847C14.6665 23.018 14.7971 22.7041 15.0582 22.443C15.3193 22.1819 15.6332 22.0513 15.9998 22.0513C16.3665 22.0513 16.6804 22.1819 16.9415 22.443C17.2026 22.7041 17.3332 23.018 17.3332 23.3847C17.3332 23.7513 17.2026 24.0652 16.9415 24.3263C16.6804 24.5874 16.3665 24.718 15.9998 24.718ZM15.9998 17.3333C15.6332 17.3333 15.3193 17.2028 15.0582 16.9417C14.7971 16.6806 14.6665 16.3667 14.6665 16C14.6665 15.6333 14.7971 15.3194 15.0582 15.0583C15.3193 14.7972 15.6332 14.6667 15.9998 14.6667C16.3665 14.6667 16.6804 14.7972 16.9415 15.0583C17.2026 15.3194 17.3332 15.6333 17.3332 16C17.3332 16.3667 17.2026 16.6806 16.9415 16.9417C16.6804 17.2028 16.3665 17.3333 15.9998 17.3333ZM15.9998 9.94866C15.6332 9.94866 15.3193 9.81811 15.0582 9.557C14.7971 9.29589 14.6665 8.982 14.6665 8.61533C14.6665 8.24866 14.7971 7.93478 15.0582 7.67366C15.3193 7.41255 15.6332 7.282 15.9998 7.282C16.3665 7.282 16.6804 7.41255 16.9415 7.67366C17.2026 7.93478 17.3332 8.24866 17.3332 8.61533C17.3332 8.982 17.2026 9.29589 16.9415 9.557C16.6804 9.81811 16.3665 9.94866 15.9998 9.94866Z" fill="white" fill-opacity="0.32"/>
</g>
</svg>
